<?xml version="1.0" encoding="UTF-8" standalone="no"?>
<svg
   xmlns:dc="http://purl.org/dc/elements/1.1/"
   xmlns:cc="http://creativecommons.org/ns#"
   xmlns:rdf="http://www.w3.org/1999/02/22-rdf-syntax-ns#"
   xmlns:svg="http://www.w3.org/2000/svg"
   xmlns="http://www.w3.org/2000/svg"
   viewBox="0 0 108 158"
   height="158"
   width="108"
   xml:space="preserve"
   id="svg2"
   version="1.1"><metadata
     id="metadata8"><rdf:RDF><cc:Work
         rdf:about=""><dc:format>image/svg+xml</dc:format><dc:type
           rdf:resource="http://purl.org/dc/dcmitype/StillImage" /></cc:Work></rdf:RDF></metadata><defs
     id="defs6" /><g
     transform="matrix(1.3333333,0,0,-1.3333333,0,158)"
     id="g10"><g
       transform="scale(0.1)"
       id="g12"><path
         id="path14"
         style="fill:#f25c19;fill-opacity:1;fill-rule:nonzero;stroke:none"
         d="m 398.383,164.563 v 194.238 c -0.848,13.441 -12.219,24.23 -25.77,24.23 l 0.641,0.309 c -75.551,1.762 -144.512,9.301 -200.191,20.883 -5.149,1.066 -12.11,0.797 -15.137,-4.352 -3.293,-5.48 -1.75,-9.558 0,-16.148 1.808,-6.543 9.988,-34 9.988,-34 5.262,-23.063 36.18,-28.641 55.84,-32.891 l 87.82,-19.019 c 42.289,-9.083 53.821,-42.024 53.821,-85.43 v -38.25 -0.274 c -0.051,-33.886 -5.582,-55.73 -28.051,-56.738 -28.481,-1.332 -49.25,26.988 -60.41,51.801 -0.258,0.527 -0.532,1.008 -0.739,1.539 l -0.32,0.789 c -0.961,2.242 -1.859,4.41 -2.609,6.492 -7.493,18.539 -24.274,59.34 -24.274,59.34 0,0 -2.187,7.391 -5.687,9.731 -3.512,2.488 -6.852,3.339 -11.16,3.339 h -29.7 l 38.309,-132.711 c 7.809,-27.2613 17.48,-58.6012 38.891,-78.6285 26.46,-24.8203 69.488,-38.25 126.55,-38.25 57.118,0 100.2,13.4297 126.61,38.25 21.41,20.0273 31.078,51.3672 38.929,78.6285 l 38.211,132.711 h -29.699 c -4.312,0 -7.601,-0.851 -11.101,-3.339 -3.512,-2.34 -5.692,-9.731 -5.692,-9.731 0,0 -16.738,-40.801 -24.277,-59.34 -0.793,-2.082 -1.641,-4.25 -2.66,-6.492 l -0.262,-0.789 c -0.27,-0.531 -0.481,-1.012 -0.75,-1.539 -11.199,-24.813 -31.981,-53.133 -60.449,-51.801 -22.43,1.008 -28,22.852 -28.063,56.738 v 0.274 38.25 c 0,43.406 11.531,76.347 53.934,85.43 l 87.769,19.019 c 19.7,4.25 50.571,9.828 55.84,32.891 0,0 8.18,27.457 9.981,34 1.707,6.59 3.238,10.668 0,16.148 -3.082,5.149 -9.981,5.418 -15.141,4.352 -55.73,-11.582 -124.691,-19.121 -200.18,-20.883 l 0.68,-0.309 c -13.699,0 -24.973,-10.789 -25.922,-24.23 V 164.563 c 0,-4.25 -3.461,-7.864 -7.758,-7.864 -4.25,0 -7.812,3.614 -7.812,7.864" /><path
         id="path16"
         style="fill:#f25c19;fill-opacity:1;fill-rule:nonzero;stroke:none"
         d="m 410.715,1159.55 c 0,0 -59.613,-33.25 -81.07,-78.25 -9.043,-18.98 -3.832,-31.18 30.699,-9.89 48.988,30.29 93.289,53.09 146,71.73 57.91,20.57 164.269,45.43 171.918,41.75 3.191,-1.53 3.351,-7.48 -2.758,-13.07 -150.57,-138.39 -166.82,-241.465 -125.813,-257.715 20.301,-8.078 54.512,-3.398 85.063,6.583 30.551,10.046 60.25,22.847 94.469,23.91 80.332,2.5 114.058,-149.871 27.25,-294.332 -48.668,-80.918 -178.301,-183.93 -187.551,-180.161 -4.141,1.7 -5.57,6.27 -3.77,13.762 1.18,4.938 47.719,107.207 10.95,123.469 -5.789,2.609 -20.239,-1.488 -33.848,-34 -17.633,-41.969 -31.133,-49.731 -38.301,-47.969 -7.281,1.688 -4.621,13.328 -3.512,21.25 1.122,7.797 2.774,14.34 -1.589,11.52 -4.36,-2.813 -45.75,-49.41 -58.809,-48.352 -4.629,0.379 -7.551,5.371 -4.52,12.332 2.969,6.848 6.051,16.199 6.051,16.199 0,0 -71.402,-69.269 -158.531,-85.961 -6.59,-1.218 -23.91,-5.41 -29.43,-2.488 -2.871,1.43 -5.05,8.758 0.578,12.539 5.582,3.77 98.024,51.578 137.93,118.84 12.113,20.461 12.371,30.82 9.192,36.34 -8.079,13.82 -47.45,0.109 -73.27,-10.891 C 302.172,595.707 263.492,573.227 214.242,564.836 153.254,554.414 80.4648,572.965 42.8516,619.766 -0.507813,673.797 -3.21875,726.984 3.00391,780.906 22.2813,949.855 183.852,1056.96 239.793,1091.5 c 67.691,41.64 168,85.01 175.75,81.93 3.93,-1.61 5.578,-7.65 -4.828,-13.88" /></g></g></svg>